<mxfile host="app.diagrams.net" modified="2023-09-21T13:16:00.196Z" agent="Mozilla/5.0 (Windows NT 10.0; Win64; x64) AppleWebKit/537.36 (KHTML, like Gecko) Chrome/117.0.0.0 Safari/537.36" etag="4PFckqwqHaVmjPobN6Vs" version="21.8.0" type="github">
  <diagram id="C5RBs43oDa-KdzZeNtuy" name="Page-1">
    <mxGraphModel dx="2074" dy="1118" grid="1" gridSize="10" guides="1" tooltips="1" connect="1" arrows="1" fold="1" page="1" pageScale="1" pageWidth="827" pageHeight="1169" math="0" shadow="0">
      <root>
        <mxCell id="WIyWlLk6GJQsqaUBKTNV-0" />
        <mxCell id="WIyWlLk6GJQsqaUBKTNV-1" parent="WIyWlLk6GJQsqaUBKTNV-0" />
        <mxCell id="BVwxd8YpLsWc-S6OiskF-2" value="" style="edgeStyle=orthogonalEdgeStyle;rounded=0;orthogonalLoop=1;jettySize=auto;html=1;" edge="1" parent="WIyWlLk6GJQsqaUBKTNV-1" source="BVwxd8YpLsWc-S6OiskF-0" target="BVwxd8YpLsWc-S6OiskF-1">
          <mxGeometry relative="1" as="geometry" />
        </mxCell>
        <mxCell id="BVwxd8YpLsWc-S6OiskF-0" value="Global unwind starts" style="ellipse;whiteSpace=wrap;html=1;" vertex="1" parent="WIyWlLk6GJQsqaUBKTNV-1">
          <mxGeometry x="310" y="70" width="120" height="80" as="geometry" />
        </mxCell>
        <mxCell id="BVwxd8YpLsWc-S6OiskF-4" value="" style="edgeStyle=orthogonalEdgeStyle;rounded=0;orthogonalLoop=1;jettySize=auto;html=1;" edge="1" parent="WIyWlLk6GJQsqaUBKTNV-1" source="BVwxd8YpLsWc-S6OiskF-1" target="BVwxd8YpLsWc-S6OiskF-3">
          <mxGeometry relative="1" as="geometry" />
        </mxCell>
        <mxCell id="BVwxd8YpLsWc-S6OiskF-1" value="Remember location of try block whose filter evaluated to EXCEPTION_EXECUTE_HANDLER" style="rounded=1;whiteSpace=wrap;html=1;" vertex="1" parent="WIyWlLk6GJQsqaUBKTNV-1">
          <mxGeometry x="260" y="200" width="220" height="110" as="geometry" />
        </mxCell>
        <mxCell id="BVwxd8YpLsWc-S6OiskF-6" value="" style="edgeStyle=orthogonalEdgeStyle;rounded=0;orthogonalLoop=1;jettySize=auto;html=1;" edge="1" parent="WIyWlLk6GJQsqaUBKTNV-1" source="BVwxd8YpLsWc-S6OiskF-3" target="BVwxd8YpLsWc-S6OiskF-5">
          <mxGeometry relative="1" as="geometry" />
        </mxCell>
        <mxCell id="BVwxd8YpLsWc-S6OiskF-3" value="System determines the innermost try block" style="rounded=1;whiteSpace=wrap;html=1;" vertex="1" parent="WIyWlLk6GJQsqaUBKTNV-1">
          <mxGeometry x="275" y="360" width="190" height="80" as="geometry" />
        </mxCell>
        <mxCell id="BVwxd8YpLsWc-S6OiskF-8" value="YES" style="edgeStyle=orthogonalEdgeStyle;rounded=0;orthogonalLoop=1;jettySize=auto;html=1;" edge="1" parent="WIyWlLk6GJQsqaUBKTNV-1" source="BVwxd8YpLsWc-S6OiskF-5" target="BVwxd8YpLsWc-S6OiskF-7">
          <mxGeometry relative="1" as="geometry" />
        </mxCell>
        <mxCell id="BVwxd8YpLsWc-S6OiskF-12" value="NO" style="edgeStyle=orthogonalEdgeStyle;rounded=0;orthogonalLoop=1;jettySize=auto;html=1;" edge="1" parent="WIyWlLk6GJQsqaUBKTNV-1" source="BVwxd8YpLsWc-S6OiskF-5" target="BVwxd8YpLsWc-S6OiskF-9">
          <mxGeometry relative="1" as="geometry" />
        </mxCell>
        <mxCell id="BVwxd8YpLsWc-S6OiskF-5" value="Have we reached the try block handling the exception?" style="rhombus;whiteSpace=wrap;html=1;" vertex="1" parent="WIyWlLk6GJQsqaUBKTNV-1">
          <mxGeometry x="275" y="470" width="190" height="125" as="geometry" />
        </mxCell>
        <mxCell id="BVwxd8YpLsWc-S6OiskF-7" value="Execute the handler code in the except block" style="ellipse;whiteSpace=wrap;html=1;" vertex="1" parent="WIyWlLk6GJQsqaUBKTNV-1">
          <mxGeometry x="90" y="492.5" width="130" height="80" as="geometry" />
        </mxCell>
        <mxCell id="BVwxd8YpLsWc-S6OiskF-13" value="YES" style="edgeStyle=orthogonalEdgeStyle;rounded=0;orthogonalLoop=1;jettySize=auto;html=1;" edge="1" parent="WIyWlLk6GJQsqaUBKTNV-1" source="BVwxd8YpLsWc-S6OiskF-9" target="BVwxd8YpLsWc-S6OiskF-10">
          <mxGeometry relative="1" as="geometry" />
        </mxCell>
        <mxCell id="BVwxd8YpLsWc-S6OiskF-14" value="NO" style="edgeStyle=orthogonalEdgeStyle;rounded=0;orthogonalLoop=1;jettySize=auto;html=1;" edge="1" parent="WIyWlLk6GJQsqaUBKTNV-1" source="BVwxd8YpLsWc-S6OiskF-9" target="BVwxd8YpLsWc-S6OiskF-11">
          <mxGeometry relative="1" as="geometry" />
        </mxCell>
        <mxCell id="BVwxd8YpLsWc-S6OiskF-9" value="Does the try block have a finally?" style="rhombus;whiteSpace=wrap;html=1;" vertex="1" parent="WIyWlLk6GJQsqaUBKTNV-1">
          <mxGeometry x="285" y="630" width="170" height="100" as="geometry" />
        </mxCell>
        <mxCell id="BVwxd8YpLsWc-S6OiskF-15" style="edgeStyle=orthogonalEdgeStyle;rounded=0;orthogonalLoop=1;jettySize=auto;html=1;exitX=1;exitY=0.5;exitDx=0;exitDy=0;entryX=0.5;entryY=1;entryDx=0;entryDy=0;" edge="1" parent="WIyWlLk6GJQsqaUBKTNV-1" source="BVwxd8YpLsWc-S6OiskF-10" target="BVwxd8YpLsWc-S6OiskF-11">
          <mxGeometry relative="1" as="geometry" />
        </mxCell>
        <mxCell id="BVwxd8YpLsWc-S6OiskF-10" value="Execute the code in the finally block" style="rounded=1;whiteSpace=wrap;html=1;" vertex="1" parent="WIyWlLk6GJQsqaUBKTNV-1">
          <mxGeometry x="280" y="760" width="180" height="70" as="geometry" />
        </mxCell>
        <mxCell id="BVwxd8YpLsWc-S6OiskF-16" style="edgeStyle=orthogonalEdgeStyle;rounded=0;orthogonalLoop=1;jettySize=auto;html=1;exitX=0.5;exitY=0;exitDx=0;exitDy=0;entryX=1;entryY=0.5;entryDx=0;entryDy=0;" edge="1" parent="WIyWlLk6GJQsqaUBKTNV-1" source="BVwxd8YpLsWc-S6OiskF-11" target="BVwxd8YpLsWc-S6OiskF-5">
          <mxGeometry relative="1" as="geometry" />
        </mxCell>
        <mxCell id="BVwxd8YpLsWc-S6OiskF-11" value="Find the previous innermost try block" style="rounded=1;whiteSpace=wrap;html=1;" vertex="1" parent="WIyWlLk6GJQsqaUBKTNV-1">
          <mxGeometry x="550" y="645" width="170" height="70" as="geometry" />
        </mxCell>
      </root>
    </mxGraphModel>
  </diagram>
</mxfile>
